<svg xmlns="http://www.w3.org/2000/svg" viewBox="0 0 900 400" font-family="Inter, -apple-system, system-ui, sans-serif">
  <defs>
    <filter id="glow">
      <feGaussianBlur stdDeviation="2" result="blur"/>
      <feMerge><feMergeNode in="blur"/><feMergeNode in="SourceGraphic"/></feMerge>
    </filter>
    <marker id="arrow" markerWidth="8" markerHeight="6" refX="8" refY="3" orient="auto">
      <path d="M0,0 L8,3 L0,6" fill="#64748b"/>
    </marker>
  </defs>

  <rect width="900" height="400" rx="12" fill="#0f172a"/>

  <!-- Claude Code node -->
  <rect x="30" y="155" width="140" height="50" rx="25" fill="#3b82f6" stroke="#60a5fa" stroke-width="1.5"/>
  <text x="100" y="185" text-anchor="middle" fill="#fff" font-size="13" font-weight="600">Claude Code</text>

  <!-- Cortex Plugin box -->
  <rect x="220" y="20" width="220" height="200" rx="8" fill="#1e293b" stroke="#f59e0b" stroke-width="1.5" opacity="0.9"/>
  <text x="330" y="44" text-anchor="middle" fill="#f59e0b" font-size="11" font-weight="700" letter-spacing="0.5">CORTEX PLUGIN</text>
  <rect x="240" y="56" width="180" height="28" rx="4" fill="#292524" stroke="#44403c" stroke-width="0.5"/>
  <text x="330" y="75" text-anchor="middle" fill="#fbbf24" font-size="11">MCP Server - 34 tools</text>
  <rect x="240" y="92" width="180" height="28" rx="4" fill="#292524" stroke="#44403c" stroke-width="0.5"/>
  <text x="330" y="111" text-anchor="middle" fill="#d4d4d8" font-size="10">SessionStart - inject context</text>
  <rect x="240" y="128" width="180" height="28" rx="4" fill="#292524" stroke="#44403c" stroke-width="0.5"/>
  <text x="330" y="147" text-anchor="middle" fill="#d4d4d8" font-size="10">PostToolUse - auto-capture</text>
  <rect x="240" y="164" width="180" height="28" rx="4" fill="#292524" stroke="#44403c" stroke-width="0.5"/>
  <text x="330" y="183" text-anchor="middle" fill="#d4d4d8" font-size="10">SessionEnd - update profile</text>

  <!-- 10 Skills box -->
  <rect x="220" y="240" width="220" height="140" rx="8" fill="#1e293b" stroke="#22c55e" stroke-width="1.5" opacity="0.9"/>
  <text x="330" y="264" text-anchor="middle" fill="#22c55e" font-size="11" font-weight="700" letter-spacing="0.5">10 SKILLS</text>
  <text x="330" y="290" text-anchor="middle" fill="#86efac" font-size="11" font-family="monospace">/cortex-remember</text>
  <text x="330" y="310" text-anchor="middle" fill="#86efac" font-size="11" font-family="monospace">/cortex-recall</text>
  <text x="330" y="330" text-anchor="middle" fill="#86efac" font-size="11" font-family="monospace">/cortex-profile</text>
  <text x="330" y="350" text-anchor="middle" fill="#86efac" font-size="11" font-family="monospace">/cortex-visualize</text>
  <text x="330" y="370" text-anchor="middle" fill="#64748b" font-size="10">+ 6 more</text>

  <!-- PostgreSQL box -->
  <rect x="520" y="60" width="240" height="160" rx="8" fill="#1e293b" stroke="#06b6d4" stroke-width="1.5" opacity="0.9"/>
  <text x="640" y="84" text-anchor="middle" fill="#06b6d4" font-size="11" font-weight="700" letter-spacing="0.5">POSTGRESQL + PGVECTOR</text>
  <rect x="540" y="96" width="200" height="28" rx="4" fill="#292524" stroke="#44403c" stroke-width="0.5"/>
  <text x="640" y="115" text-anchor="middle" fill="#67e8f9" font-size="11">Memories + Embeddings</text>
  <rect x="540" y="132" width="200" height="28" rx="4" fill="#292524" stroke="#44403c" stroke-width="0.5"/>
  <text x="640" y="151" text-anchor="middle" fill="#67e8f9" font-size="11">Entity Knowledge Graph</text>
  <rect x="540" y="168" width="200" height="28" rx="4" fill="#292524" stroke="#44403c" stroke-width="0.5"/>
  <text x="640" y="187" text-anchor="middle" fill="#67e8f9" font-size="11">WRRF Stored Procedures</text>

  <!-- Arrows -->
  <line x1="170" y1="170" x2="215" y2="120" stroke="#64748b" stroke-width="1.5" marker-end="url(#arrow)"/>
  <line x1="170" y1="190" x2="215" y2="300" stroke="#64748b" stroke-width="1.5" marker-end="url(#arrow)"/>
  <line x1="440" y1="140" x2="515" y2="140" stroke="#64748b" stroke-width="1.5" marker-end="url(#arrow)"/>
  <line x1="440" y1="310" x2="465" y2="310" stroke="#64748b" stroke-width="1" stroke-dasharray="4,3"/>
  <path d="M465,310 Q490,310 490,220 L490,120 L515,120" fill="none" stroke="#64748b" stroke-width="1" stroke-dasharray="4,3" marker-end="url(#arrow)"/>

  <!-- Arrow labels -->
  <text x="475" y="105" text-anchor="middle" fill="#94a3b8" font-size="9">via plugin</text>
</svg>
