<svg xmlns="http://www.w3.org/2000/svg" viewBox="0 0 900 280" font-family="Inter, -apple-system, system-ui, sans-serif">
  <defs>
    <marker id="arr" markerWidth="8" markerHeight="6" refX="8" refY="3" orient="auto">
      <path d="M0,0 L8,3 L0,6" fill="#64748b"/>
    </marker>
    <marker id="arr-purple" markerWidth="8" markerHeight="6" refX="8" refY="3" orient="auto">
      <path d="M0,0 L8,3 L0,6" fill="#a855f7"/>
    </marker>
  </defs>

  <rect width="900" height="280" rx="12" fill="#0f172a"/>

  <!-- Encoding -->
  <rect x="16" y="16" width="190" height="248" rx="8" fill="#1e293b" stroke="#f59e0b" stroke-width="1.5"/>
  <text x="111" y="38" text-anchor="middle" fill="#f59e0b" font-size="11" font-weight="700" letter-spacing="0.5">ENCODING</text>
  <rect x="30" y="50" width="162" height="28" rx="4" fill="#292524" stroke="#44403c" stroke-width="0.5"/>
  <text x="111" y="69" text-anchor="middle" fill="#d4d4d8" font-size="10">Oscillatory Clock</text>
  <rect x="30" y="86" width="162" height="28" rx="4" fill="#292524" stroke="#f59e0b" stroke-width="0.8"/>
  <text x="111" y="105" text-anchor="middle" fill="#fbbf24" font-size="10" font-weight="500">Predictive Coding</text>
  <rect x="30" y="122" width="162" height="28" rx="4" fill="#292524" stroke="#8b5cf6" stroke-width="0.8"/>
  <text x="111" y="141" text-anchor="middle" fill="#c4b5fd" font-size="10" font-weight="500">Neuromodulation</text>
  <rect x="30" y="158" width="162" height="28" rx="4" fill="#292524" stroke="#ef4444" stroke-width="0.8"/>
  <text x="111" y="177" text-anchor="middle" fill="#fca5a5" font-size="10" font-weight="500">Emotional Tagging</text>
  <rect x="30" y="194" width="162" height="28" rx="4" fill="#292524" stroke="#44403c" stroke-width="0.5"/>
  <text x="111" y="213" text-anchor="middle" fill="#d4d4d8" font-size="10">Pattern Separation</text>
  <text x="111" y="248" text-anchor="middle" fill="#64748b" font-size="8" font-style="italic">Hasselmo, Friston, Doya, Wang</text>

  <!-- Arrow Encoding -> Maintenance -->
  <line x1="206" y1="140" x2="232" y2="140" stroke="#64748b" stroke-width="1.5" marker-end="url(#arr)"/>

  <!-- Storage & Maintenance -->
  <rect x="238" y="16" width="190" height="248" rx="8" fill="#1e293b" stroke="#06b6d4" stroke-width="1.5"/>
  <text x="333" y="38" text-anchor="middle" fill="#06b6d4" font-size="11" font-weight="700" letter-spacing="0.5">STORAGE</text>
  <rect x="252" y="50" width="162" height="28" rx="4" fill="#292524" stroke="#44403c" stroke-width="0.5"/>
  <text x="333" y="69" text-anchor="middle" fill="#d4d4d8" font-size="10">Engram Competition</text>
  <rect x="252" y="86" width="162" height="28" rx="4" fill="#292524" stroke="#44403c" stroke-width="0.5"/>
  <text x="333" y="105" text-anchor="middle" fill="#d4d4d8" font-size="10">Thermodynamics</text>
  <rect x="252" y="122" width="162" height="28" rx="4" fill="#292524" stroke="#44403c" stroke-width="0.5"/>
  <text x="333" y="141" text-anchor="middle" fill="#d4d4d8" font-size="10">Homeostatic Plasticity</text>
  <rect x="252" y="158" width="162" height="28" rx="4" fill="#292524" stroke="#44403c" stroke-width="0.5"/>
  <text x="333" y="177" text-anchor="middle" fill="#d4d4d8" font-size="10">Consolidation Cascade</text>
  <text x="333" y="248" text-anchor="middle" fill="#64748b" font-size="8" font-style="italic">Josselyn, Ebbinghaus, Turrigiano, Kandel</text>

  <!-- Arrow Maintenance -> Retrieval -->
  <line x1="428" y1="140" x2="454" y2="140" stroke="#64748b" stroke-width="1.5" marker-end="url(#arr)"/>

  <!-- Retrieval -->
  <rect x="460" y="16" width="190" height="248" rx="8" fill="#1e293b" stroke="#22c55e" stroke-width="1.5"/>
  <text x="555" y="38" text-anchor="middle" fill="#22c55e" font-size="11" font-weight="700" letter-spacing="0.5">RETRIEVAL</text>
  <rect x="474" y="50" width="162" height="28" rx="4" fill="#292524" stroke="#44403c" stroke-width="0.5"/>
  <text x="555" y="69" text-anchor="middle" fill="#d4d4d8" font-size="10">Hopfield Network</text>
  <rect x="474" y="86" width="162" height="28" rx="4" fill="#292524" stroke="#44403c" stroke-width="0.5"/>
  <text x="555" y="105" text-anchor="middle" fill="#d4d4d8" font-size="10">Spreading Activation</text>
  <rect x="474" y="122" width="162" height="28" rx="4" fill="#292524" stroke="#f97316" stroke-width="0.8"/>
  <text x="555" y="141" text-anchor="middle" fill="#fdba74" font-size="10" font-weight="500">Surprise Momentum</text>
  <rect x="474" y="158" width="162" height="28" rx="4" fill="#292524" stroke="#44403c" stroke-width="0.5"/>
  <text x="555" y="177" text-anchor="middle" fill="#d4d4d8" font-size="10">Co-Activation</text>
  <text x="555" y="248" text-anchor="middle" fill="#64748b" font-size="8" font-style="italic">Ramsauer, Collins, Behrouz, Kosowski</text>

  <!-- Arrow Retrieval -> Plasticity -->
  <line x1="650" y1="140" x2="676" y2="140" stroke="#64748b" stroke-width="1.5" marker-end="url(#arr)"/>

  <!-- Plasticity & Pruning -->
  <rect x="682" y="16" width="200" height="248" rx="8" fill="#1e293b" stroke="#a855f7" stroke-width="1.5"/>
  <text x="782" y="38" text-anchor="middle" fill="#a855f7" font-size="11" font-weight="700" letter-spacing="0.5">PLASTICITY</text>
  <rect x="696" y="50" width="172" height="28" rx="4" fill="#292524" stroke="#22c55e" stroke-width="0.8"/>
  <text x="782" y="69" text-anchor="middle" fill="#86efac" font-size="10" font-weight="500">LTP/LTD + STDP</text>
  <rect x="696" y="86" width="172" height="28" rx="4" fill="#292524" stroke="#ef4444" stroke-width="0.8"/>
  <text x="782" y="105" text-anchor="middle" fill="#fca5a5" font-size="10" font-weight="500">Microglial Pruning</text>
  <rect x="696" y="122" width="172" height="28" rx="4" fill="#292524" stroke="#1e40af" stroke-width="0.8"/>
  <text x="782" y="141" text-anchor="middle" fill="#93c5fd" font-size="10" font-weight="500">Sleep Compute</text>
  <rect x="696" y="158" width="172" height="28" rx="4" fill="#292524" stroke="#44403c" stroke-width="0.5"/>
  <text x="782" y="177" text-anchor="middle" fill="#d4d4d8" font-size="10">Interference Mgmt</text>
  <text x="782" y="248" text-anchor="middle" fill="#64748b" font-size="8" font-style="italic">Hebb, Bi &amp; Poo, Wang, McClelland</text>

  <!-- Feedback loop: Plasticity -> Maintenance (bottom arc) -->
  <path d="M782,264 Q782,275 555,275 Q333,275 333,264" fill="none" stroke="#a855f7" stroke-width="1.2" stroke-dasharray="5,3" marker-end="url(#arr-purple)"/>
  <text x="555" y="274" text-anchor="middle" fill="#a855f7" font-size="9" font-weight="500" dy="-3">strengthen / weaken</text>
</svg>
