<svg xmlns="http://www.w3.org/2000/svg" viewBox="0 0 600 300" font-family="Inter, -apple-system, system-ui, sans-serif">
  <defs>
    <marker id="arr" markerWidth="8" markerHeight="6" refX="8" refY="3" orient="auto">
      <path d="M0,0 L8,3 L0,6" fill="#64748b"/>
    </marker>
  </defs>

  <rect width="600" height="300" rx="12" fill="#0f172a"/>

  <!-- Session History -->
  <rect x="200" y="14" width="200" height="40" rx="20" fill="#1e293b" stroke="#64748b" stroke-width="1.2"/>
  <text x="300" y="33" text-anchor="middle" fill="#94a3b8" font-size="12" font-weight="500">Session History</text>
  <text x="300" y="47" text-anchor="middle" fill="#64748b" font-size="9" font-family="monospace">~/.claude/projects/</text>

  <line x1="300" y1="54" x2="300" y2="76" stroke="#64748b" stroke-width="1.5" marker-end="url(#arr)"/>

  <!-- Pattern Extraction -->
  <rect x="210" y="80" width="180" height="34" rx="4" fill="#292524" stroke="#44403c" stroke-width="0.5"/>
  <text x="300" y="101" text-anchor="middle" fill="#d4d4d8" font-size="12">Pattern Extraction</text>

  <!-- Four branches -->
  <line x1="210" y1="114" x2="90" y2="155" stroke="#64748b" stroke-width="1.2" marker-end="url(#arr)"/>
  <line x1="260" y1="114" x2="230" y2="155" stroke="#64748b" stroke-width="1.2" marker-end="url(#arr)"/>
  <line x1="340" y1="114" x2="370" y2="155" stroke="#64748b" stroke-width="1.2" marker-end="url(#arr)"/>
  <line x1="390" y1="114" x2="510" y2="155" stroke="#64748b" stroke-width="1.2" marker-end="url(#arr)"/>

  <!-- Cognitive Style -->
  <rect x="18" y="158" width="150" height="38" rx="4" fill="#1e293b" stroke="#a855f7" stroke-width="1.2"/>
  <text x="93" y="175" text-anchor="middle" fill="#c4b5fd" font-size="11" font-weight="500">Cognitive Style</text>
  <text x="93" y="189" text-anchor="middle" fill="#64748b" font-size="9">Felder-Silverman 4D</text>

  <!-- Entry Patterns -->
  <rect x="180" y="158" width="110" height="38" rx="4" fill="#1e293b" stroke="#475569" stroke-width="1"/>
  <text x="235" y="181" text-anchor="middle" fill="#d4d4d8" font-size="11">Entry Patterns</text>

  <!-- Blind Spots -->
  <rect x="310" y="158" width="110" height="38" rx="4" fill="#1e293b" stroke="#475569" stroke-width="1"/>
  <text x="365" y="181" text-anchor="middle" fill="#d4d4d8" font-size="11">Blind Spots</text>

  <!-- Cross-Domain Bridges -->
  <rect x="438" y="158" width="148" height="38" rx="4" fill="#1e293b" stroke="#475569" stroke-width="1"/>
  <text x="512" y="181" text-anchor="middle" fill="#d4d4d8" font-size="11">Cross-Domain Bridges</text>

  <!-- All converge -->
  <line x1="93" y1="196" x2="300" y2="240" stroke="#64748b" stroke-width="1" marker-end="url(#arr)"/>
  <line x1="235" y1="196" x2="300" y2="240" stroke="#64748b" stroke-width="1" marker-end="url(#arr)"/>
  <line x1="365" y1="196" x2="300" y2="240" stroke="#64748b" stroke-width="1" marker-end="url(#arr)"/>
  <line x1="512" y1="196" x2="300" y2="240" stroke="#64748b" stroke-width="1" marker-end="url(#arr)"/>

  <!-- Cognitive Profile -->
  <rect x="180" y="245" width="240" height="40" rx="20" fill="#1e293b" stroke="#f59e0b" stroke-width="1.5"/>
  <text x="300" y="264" text-anchor="middle" fill="#fbbf24" font-size="12" font-weight="600">Cognitive Profile</text>
  <text x="300" y="278" text-anchor="middle" fill="#a3a3a3" font-size="9">injected at session start</text>
</svg>
